Coordinates
version=1
nRows=13
nColumns=34
inDegrees=yes

Units are S.I. units (second, meters, Newtons, ...)
If the header above contains a line with 'inDegrees', this indicates whether rotational values are in degrees (yes) or radians (no).

endheader
time	pelvis_tilt	pelvis_list	pelvis_rotation	pelvis_tx	pelvis_ty	pelvis_tz	hip_flexion_r	hip_adduction_r	hip_rotation_r	knee_angle_r	ankle_angle_r	subtalar_angle_r	mtp_angle_r	hip_flexion_l	hip_adduction_l	hip_rotation_l	knee_angle_l	ankle_angle_l	subtalar_angle_l	mtp_angle_l	lumbar_extension	lumbar_bending	lumbar_rotation	arm_flex_r	arm_add_r	arm_rot_r	elbow_flex_r	pro_sup_r	arm_flex_l	arm_add_l	arm_rot_l	elbow_flex_l	pro_sup_l
      1.75000000	     -5.97546128	      1.06972893	     -1.93953805	     -0.02267111	      1.28448669	     -0.08473017	      0.95020844	     -0.60243505	      6.11868224	      2.31959684	      6.67703811	     -2.33922636	      0.00000000	      4.04373547	      0.04539613	     10.12777531	      6.92006500	      2.75266213	     -6.50678493	      0.00000000	      5.75725249	      0.35335774	      0.45334107	     -0.42080032	     -7.00911302	      7.55776437	     30.11141929	     84.06489257	     -3.22170456	     -7.37617930	     18.29809732	     28.63881767	     79.01407236
      1.76666670	     -6.11228646	      1.08971612	     -2.20193921	     -0.02358426	      1.28540444	     -0.08484574	      1.05624904	     -0.59641584	      6.31538776	      2.08053743	      6.65259822	     -2.14446133	      0.00000000	      4.08548982	      0.03777428	     10.17719026	      6.70414602	      2.73052937	     -6.48655198	      0.00000000	      5.66544551	      0.34869065	      0.49621168	     -0.07691711	     -7.03109708	      7.46346562	     30.38718233	     84.10317834	     -3.45637422	     -7.65908814	     18.25196777	     28.21126394	     79.04681761
      1.78333330	     -6.11502566	      1.12207929	     -2.58768039	     -0.02598267	      1.27807382	     -0.08560467	      1.09361345	     -0.62384345	      6.34847766	      1.96898543	      7.04543653	     -0.97472895	      0.00000000	      3.94987035	      0.10424675	      9.95814534	      6.46189546	      2.88831976	     -6.74272678	      0.00000000	      5.70438807	      0.48510271	      0.55595461	     -0.74024241	     -7.13706535	      5.91348766	     33.08901061	     85.57655269	     -2.22605184	     -6.70953685	     17.28655256	     23.36491003	     80.13202455
      1.80000000	     -6.21898531	      1.15576777	     -2.81905753	     -0.02624129	      1.28390701	     -0.08504419	      1.20077831	     -0.59911869	      6.40136478	      1.81790921	      7.09095092	     -0.93343746	      0.00000000	      3.97254673	      0.12514071	     10.05655373	      6.25383311	      2.83673436	     -6.68433424	      0.00000000	      5.61182430	      0.49685370	      0.65777019	     -0.50434803	     -7.14065270	      5.82148064	     33.17833840	     85.62678159	     -2.27151819	     -6.88460604	     17.27064663	     23.26986113	     80.17742307
      1.81666670	     -6.33440576	      1.19669137	     -3.08712343	     -0.02946285	      1.28039434	     -0.08549631	      1.29778276	     -0.57556483	      6.52713595	      1.67435457	      7.16800843	     -0.84398137	      0.00000000	      3.96501189	      0.19385453	     10.09702498	      5.95590916	      2.94876634	     -6.72441534	      0.00000000	      5.48113185	      0.49293921	      0.66911045	     -0.28032010	     -7.12074923	      5.72989848	     33.27892202	     85.68403796	     -2.16464843	     -7.01891397	     17.23634940	     23.16094905	     80.22431432
      1.83333330	     -6.08658605	      1.15930313	     -3.31551053	     -0.03284316	      1.28068077	     -0.08544155	      1.09942536	     -0.46116236	      6.41540778	      1.67194833	      7.78234052	     -0.13859533	      0.00000000	      3.69038375	      0.20718629	     10.33433347	      5.86029625	      3.13994774	     -7.14490533	      0.00000000	      4.76655149	      0.52474490	      1.74745290	     -1.09917015	     -6.47257012	      0.79458125	     34.85322542	     91.22376673	     -0.61862020	     -6.46985093	     16.27064225	     20.70466484	     84.58593714
      1.85000000	     -6.07808712	      1.17195841	     -3.34106056	     -0.03267964	      1.27803675	     -0.08518982	      1.09453302	     -0.38311138	      6.41792589	      1.65899592	      7.78327452	     -0.13669814	      0.00000000	      3.70549900	      0.27717077	     10.33204140	      5.83387368	      3.14550817	     -7.14612922	      0.00000000	      4.75677365	      0.52216333	      1.73652340	     -1.10417521	     -6.47920848	      0.79355211	     34.84886295	     91.22565608	     -0.60781910	     -6.47415108	     16.27014275	     20.70809022	     84.58728670
      1.86666670	     -6.24479079	      1.17661970	     -3.49612055	     -0.03411521	      1.27859402	     -0.08599519	      1.16321534	     -0.30078684	      6.56970780	      1.37223265	      7.85245894	     -0.08973319	      0.00000000	      3.72610774	      0.31382346	     10.22222194	      5.38055599	      3.38065940	     -7.30229043	      0.00000000	      4.51336862	      0.50641955	      1.58888378	     -1.13563009	     -6.49106206	      0.79412245	     34.75636741	     91.26995804	     -0.33508778	     -6.57422439	     16.24771020	     20.77985370	     84.61565244
      1.88333330	     -5.52978874	      1.09314472	     -3.83105603	     -0.03878224	      1.27801589	     -0.08551780	      0.41313321	     -0.16816134	      7.17416783	      1.16797036	      7.89680729	     -0.25701955	      0.00000000	      2.83618937	      0.30438696	     10.08049710	      5.02067565	      3.44598326	     -7.79973312	      0.00000000	      3.21438481	      0.45276391	      1.88326900	     -0.46728930	     -6.36239413	      0.86267114	     33.58899130	     92.10768180	      0.26597565	     -6.63501435	     16.10193452	     21.17219055	     85.20571500
      1.90000000	     -5.60144726	      1.07526734	     -3.82479355	     -0.04038235	      1.27798362	     -0.08473277	      0.50190371	     -0.07435463	      7.19400652	      1.01633958	      7.94009514	     -0.26351381	      0.00000000	      2.92319053	      0.32231392	      9.98899307	      4.81925642	      3.58839581	     -7.90863257	      0.00000000	      3.06318271	      0.48219168	      1.72728252	     -0.55913343	     -6.28253845	      0.88118311	     33.49576495	     92.14802038	      0.54050887	     -6.58760546	     16.08696799	     21.25877441	     85.23474481
      1.91666670	     -5.58286393	      0.95082119	     -3.80139939	     -0.04278841	      1.28080384	     -0.08614638	      0.54792109	      0.08667475	      7.11012110	      0.97393029	      7.87432875	     -0.30270396	      0.00000000	      3.03466575	      0.25255981	     10.07065417	      4.81627385	      3.74506939	     -8.04441931	      0.00000000	      2.55817512	      0.55976668	      1.81381038	     -0.35408922	     -6.18935436	      0.88936847	     33.00223571	     92.32888262	      1.14935160	     -6.47768369	     16.02502744	     21.51187944	     85.37679819
      1.93333330	     -5.60890394	      0.95904976	     -3.79245261	     -0.04489440	      1.28125721	     -0.08669304	      0.62945067	      0.10387079	      7.15305211	      0.84591476	      7.87367046	     -0.28174459	      0.00000000	      3.07992951	      0.32536589	      9.98978355	      4.63168922	      3.80756598	     -8.11639494	      0.00000000	      2.37266450	      0.61728693	      1.64197392	     -0.56340743	     -6.14780140	      0.90128392	     32.83295527	     92.35383661	      1.37750130	     -6.37846652	     16.02275167	     21.60066478	     85.39812445
      1.95000000	     -4.82457858	      0.84369741	     -3.67285982	     -0.04711654	      1.28634582	     -0.08614813	     -0.29738486	      0.18815331	      7.24675707	      0.54054464	      7.54915925	     -0.19708184	      0.00000000	      2.21873941	      0.29242534	     10.15531201	      4.37603916	      3.56103966	     -8.40036466	      0.00000000	      1.03457923	      0.55157782	      1.88996843	      0.33273023	     -5.83429347	      0.73144236	     30.03460225	     93.20550933	      2.17800425	     -6.26045279	     15.93129545	     22.16387719	     86.23846326
